<mxfile host="app.diagrams.net" agent="Mozilla/5.0 (Macintosh; Intel Mac OS X 10_15_7) AppleWebKit/605.1.15 (KHTML, like Gecko) Version/17.6 Safari/605.1.15" version="24.7.14">
  <diagram name="Page-1" id="tg7vOl6ffWPbPfvN86WO">
    <mxGraphModel dx="345" dy="353" grid="1" gridSize="10" guides="1" tooltips="1" connect="1" arrows="1" fold="1" page="1" pageScale="1" pageWidth="827" pageHeight="1169" math="0" shadow="0">
      <root>
        <mxCell id="0" />
        <mxCell id="1" parent="0" />
        <mxCell id="-_3MDkU04iLh4h6ET8f6-1" value="" style="ellipse;whiteSpace=wrap;html=1;aspect=fixed;" vertex="1" parent="1">
          <mxGeometry x="230" y="310" width="20" height="20" as="geometry" />
        </mxCell>
        <mxCell id="-_3MDkU04iLh4h6ET8f6-2" value="" style="ellipse;whiteSpace=wrap;html=1;aspect=fixed;" vertex="1" parent="1">
          <mxGeometry x="230" y="390" width="20" height="20" as="geometry" />
        </mxCell>
        <mxCell id="-_3MDkU04iLh4h6ET8f6-3" value="" style="ellipse;whiteSpace=wrap;html=1;aspect=fixed;" vertex="1" parent="1">
          <mxGeometry x="310" y="310" width="20" height="20" as="geometry" />
        </mxCell>
        <mxCell id="-_3MDkU04iLh4h6ET8f6-4" value="" style="ellipse;whiteSpace=wrap;html=1;aspect=fixed;" vertex="1" parent="1">
          <mxGeometry x="310" y="390" width="20" height="20" as="geometry" />
        </mxCell>
        <mxCell id="-_3MDkU04iLh4h6ET8f6-5" value="" style="ellipse;whiteSpace=wrap;html=1;aspect=fixed;" vertex="1" parent="1">
          <mxGeometry x="270" y="290" width="20" height="20" as="geometry" />
        </mxCell>
        <mxCell id="-_3MDkU04iLh4h6ET8f6-8" value="" style="endArrow=none;html=1;rounded=0;" edge="1" parent="1">
          <mxGeometry width="50" height="50" relative="1" as="geometry">
            <mxPoint x="280" y="390" as="sourcePoint" />
            <mxPoint x="280" y="360" as="targetPoint" />
          </mxGeometry>
        </mxCell>
        <mxCell id="-_3MDkU04iLh4h6ET8f6-10" value="" style="endArrow=classic;startArrow=classic;html=1;rounded=0;" edge="1" parent="1">
          <mxGeometry width="50" height="50" relative="1" as="geometry">
            <mxPoint x="360" y="440" as="sourcePoint" />
            <mxPoint x="200" y="275" as="targetPoint" />
          </mxGeometry>
        </mxCell>
        <mxCell id="-_3MDkU04iLh4h6ET8f6-11" value="" style="endArrow=classic;startArrow=classic;html=1;rounded=0;" edge="1" parent="1">
          <mxGeometry width="50" height="50" relative="1" as="geometry">
            <mxPoint x="200" y="440" as="sourcePoint" />
            <mxPoint x="360" y="280" as="targetPoint" />
          </mxGeometry>
        </mxCell>
        <mxCell id="-_3MDkU04iLh4h6ET8f6-12" value="" style="endArrow=none;dashed=1;html=1;rounded=0;" edge="1" parent="1">
          <mxGeometry width="50" height="50" relative="1" as="geometry">
            <mxPoint x="280" y="480" as="sourcePoint" />
            <mxPoint x="280" y="240" as="targetPoint" />
          </mxGeometry>
        </mxCell>
        <mxCell id="-_3MDkU04iLh4h6ET8f6-14" value="" style="endArrow=none;dashed=1;html=1;rounded=0;" edge="1" parent="1">
          <mxGeometry width="50" height="50" relative="1" as="geometry">
            <mxPoint x="160" y="360" as="sourcePoint" />
            <mxPoint x="400" y="360" as="targetPoint" />
          </mxGeometry>
        </mxCell>
        <mxCell id="-_3MDkU04iLh4h6ET8f6-16" value="" style="endArrow=classic;html=1;rounded=0;" edge="1" parent="1">
          <mxGeometry width="50" height="50" relative="1" as="geometry">
            <mxPoint x="280" y="360" as="sourcePoint" />
            <mxPoint x="330" y="370" as="targetPoint" />
          </mxGeometry>
        </mxCell>
        <mxCell id="-_3MDkU04iLh4h6ET8f6-17" value="" style="endArrow=classic;html=1;rounded=0;" edge="1" parent="1">
          <mxGeometry width="50" height="50" relative="1" as="geometry">
            <mxPoint x="310" y="390" as="sourcePoint" />
            <mxPoint x="330" y="370" as="targetPoint" />
          </mxGeometry>
        </mxCell>
        <mxCell id="-_3MDkU04iLh4h6ET8f6-18" value="" style="endArrow=classic;html=1;rounded=0;" edge="1" parent="1">
          <mxGeometry width="50" height="50" relative="1" as="geometry">
            <mxPoint x="300" y="340" as="sourcePoint" />
            <mxPoint x="330" y="370" as="targetPoint" />
          </mxGeometry>
        </mxCell>
        <mxCell id="-_3MDkU04iLh4h6ET8f6-19" value="0.015" style="text;html=1;align=center;verticalAlign=middle;resizable=0;points=[];autosize=1;strokeColor=none;fillColor=none;" vertex="1" parent="1">
          <mxGeometry x="325" y="380" width="50" height="30" as="geometry" />
        </mxCell>
        <mxCell id="-_3MDkU04iLh4h6ET8f6-20" value="13.968" style="text;html=1;align=center;verticalAlign=middle;resizable=0;points=[];autosize=1;strokeColor=none;fillColor=none;" vertex="1" parent="1">
          <mxGeometry x="320" y="328" width="60" height="30" as="geometry" />
        </mxCell>
        <mxCell id="-_3MDkU04iLh4h6ET8f6-21" value="+Z" style="text;html=1;align=center;verticalAlign=middle;resizable=0;points=[];autosize=1;strokeColor=none;fillColor=none;" vertex="1" parent="1">
          <mxGeometry x="275" y="470" width="40" height="30" as="geometry" />
        </mxCell>
        <mxCell id="-_3MDkU04iLh4h6ET8f6-22" value="-Z" style="text;html=1;align=center;verticalAlign=middle;resizable=0;points=[];autosize=1;strokeColor=none;fillColor=none;" vertex="1" parent="1">
          <mxGeometry x="280" y="220" width="30" height="30" as="geometry" />
        </mxCell>
        <mxCell id="-_3MDkU04iLh4h6ET8f6-23" value="+Y" style="text;html=1;align=center;verticalAlign=middle;resizable=0;points=[];autosize=1;strokeColor=none;fillColor=none;" vertex="1" parent="1">
          <mxGeometry x="390" y="328" width="40" height="30" as="geometry" />
        </mxCell>
        <mxCell id="-_3MDkU04iLh4h6ET8f6-24" value="-Y" style="text;html=1;align=center;verticalAlign=middle;resizable=0;points=[];autosize=1;strokeColor=none;fillColor=none;" vertex="1" parent="1">
          <mxGeometry x="130" y="328" width="40" height="30" as="geometry" />
        </mxCell>
        <mxCell id="-_3MDkU04iLh4h6ET8f6-25" value="+X" style="text;html=1;align=center;verticalAlign=middle;resizable=0;points=[];autosize=1;strokeColor=none;fillColor=none;" vertex="1" parent="1">
          <mxGeometry x="355" y="250" width="40" height="30" as="geometry" />
        </mxCell>
        <mxCell id="-_3MDkU04iLh4h6ET8f6-26" value="+Y" style="text;html=1;align=center;verticalAlign=middle;resizable=0;points=[];autosize=1;strokeColor=none;fillColor=none;" vertex="1" parent="1">
          <mxGeometry x="350" y="438" width="40" height="30" as="geometry" />
        </mxCell>
        <mxCell id="-_3MDkU04iLh4h6ET8f6-27" value="-X" style="text;html=1;align=center;verticalAlign=middle;resizable=0;points=[];autosize=1;strokeColor=none;fillColor=none;" vertex="1" parent="1">
          <mxGeometry x="170" y="438" width="40" height="30" as="geometry" />
        </mxCell>
        <mxCell id="-_3MDkU04iLh4h6ET8f6-28" value="-Y" style="text;html=1;align=center;verticalAlign=middle;resizable=0;points=[];autosize=1;strokeColor=none;fillColor=none;" vertex="1" parent="1">
          <mxGeometry x="170" y="250" width="40" height="30" as="geometry" />
        </mxCell>
        <mxCell id="-_3MDkU04iLh4h6ET8f6-29" value="Focal point: X:-2, Y:-2" style="text;html=1;align=center;verticalAlign=middle;resizable=0;points=[];autosize=1;strokeColor=none;fillColor=none;" vertex="1" parent="1">
          <mxGeometry x="280" y="488" width="140" height="30" as="geometry" />
        </mxCell>
      </root>
    </mxGraphModel>
  </diagram>
</mxfile>
